<?xml version="1.0" encoding="utf-8"?><!-- Uploaded to: SVG Repo, www.svgrepo.com, Generator: SVG Repo Mixer Tools -->
<svg fill="#000000" width="800px" height="800px" viewBox="0 0 24 24" id="video" data-name="Flat Line" xmlns="http://www.w3.org/2000/svg" class="icon flat-line"><rect id="secondary" x="3" y="6" width="14" height="12" rx="1" style="fill: rgb(44, 169, 188); stroke-width: 2;"></rect><path id="primary" d="M17,14.62l2.55,1.27A1,1,0,0,0,21,15V9a1,1,0,0,0-1.45-.89L17,9.38ZM11,12,9,10.5v3Zm5,6H4a1,1,0,0,1-1-1V7A1,1,0,0,1,4,6H16a1,1,0,0,1,1,1V17A1,1,0,0,1,16,18Z" style="fill: none; stroke: rgb(0, 0, 0); stroke-linecap: round; stroke-linejoin: round; stroke-width: 2;"></path></svg>